<svg width="25" height="25" viewBox="0 0 25 25" fill="none" xmlns="http://www.w3.org/2000/svg">
<g clip-path="url(#clip0_11219_2547)">
<mask id="mask0_11219_2547" style="mask-type:alpha" maskUnits="userSpaceOnUse" x="0" y="-1" width="25" height="26">
<rect y="-0.000976562" width="25" height="25" fill="#D9D9D9"/>
</mask>
<g mask="url(#mask0_11219_2547)">
<path d="M2.63021 8.0459C2.24826 8.0459 1.92274 7.91135 1.65365 7.64225C1.38455 7.37316 1.25 7.04763 1.25 6.66569V2.62923C1.25 2.24729 1.38455 1.92177 1.65365 1.65267C1.92274 1.38357 2.24826 1.24902 2.63021 1.24902H14.5312C14.9132 1.24902 15.2387 1.38357 15.5078 1.65267C15.7769 1.92177 15.9115 2.24729 15.9115 2.62923V6.66569C15.9115 7.04763 15.7769 7.37316 15.5078 7.64225C15.2387 7.91135 14.9132 8.0459 14.5312 8.0459H2.63021ZM2.63021 23.749C2.24826 23.749 1.92274 23.6145 1.65365 23.3454C1.38455 23.0763 1.25 22.7508 1.25 22.3688V18.3324C1.25 17.9504 1.38455 17.6249 1.65365 17.3558C1.92274 17.0867 2.24826 16.9521 2.63021 16.9521H6.66667C7.04861 16.9521 7.37413 17.0867 7.64323 17.3558C7.91233 17.6249 8.04688 17.9504 8.04688 18.3324V22.3688C8.04688 22.7508 7.91233 23.0763 7.64323 23.3454C7.37413 23.6145 7.04861 23.749 6.66667 23.749H2.63021ZM10.4688 23.749C10.0868 23.749 9.76128 23.6145 9.49219 23.3454C9.22309 23.0763 9.08854 22.7508 9.08854 22.3688V18.3324C9.08854 17.9504 9.22309 17.6249 9.49219 17.3558C9.76128 17.0867 10.0868 16.9521 10.4688 16.9521H14.5312C14.9132 16.9521 15.2387 17.0867 15.5078 17.3558C15.7769 17.6249 15.9115 17.9504 15.9115 18.3324V22.3688C15.9115 22.7508 15.7769 23.0763 15.5078 23.3454C15.2387 23.6145 14.9132 23.749 14.5312 23.749H10.4688ZM18.3333 23.749C17.9514 23.749 17.6259 23.6145 17.3568 23.3454C17.0877 23.0763 16.9531 22.7508 16.9531 22.3688V18.3324C16.9531 17.9504 17.0877 17.6249 17.3568 17.3558C17.6259 17.0867 17.9514 16.9521 18.3333 16.9521H22.3698C22.7517 16.9521 23.0773 17.0867 23.3464 17.3558C23.6154 17.6249 23.75 17.9504 23.75 18.3324V22.3688C23.75 22.7508 23.6154 23.0763 23.3464 23.3454C23.0773 23.6145 22.7517 23.749 22.3698 23.749H18.3333ZM2.63021 15.9105C2.24826 15.9105 1.92274 15.7759 1.65365 15.5068C1.38455 15.2377 1.25 14.9122 1.25 14.5303V10.4678C1.25 10.0858 1.38455 9.76031 1.65365 9.49121C1.92274 9.22211 2.24826 9.08756 2.63021 9.08756H6.66667C7.04861 9.08756 7.37413 9.22211 7.64323 9.49121C7.91233 9.76031 8.04688 10.0858 8.04688 10.4678V14.5303C8.04688 14.9122 7.91233 15.2377 7.64323 15.5068C7.37413 15.7759 7.04861 15.9105 6.66667 15.9105H2.63021ZM10.4688 15.9105C10.0868 15.9105 9.76128 15.7759 9.49219 15.5068C9.22309 15.2377 9.08854 14.9122 9.08854 14.5303V10.4678C9.08854 10.0858 9.22309 9.76031 9.49219 9.49121C9.76128 9.22211 10.0868 9.08756 10.4688 9.08756H14.5312C14.9132 9.08756 15.2387 9.22211 15.5078 9.49121C15.7769 9.76031 15.9115 10.0858 15.9115 10.4678V14.5303C15.9115 14.9122 15.7769 15.2377 15.5078 15.5068C15.2387 15.7759 14.9132 15.9105 14.5312 15.9105H10.4688ZM18.3333 15.9105C17.9514 15.9105 17.6259 15.7759 17.3568 15.5068C17.0877 15.2377 16.9531 14.9122 16.9531 14.5303V10.4678C16.9531 10.0858 17.0877 9.76031 17.3568 9.49121C17.6259 9.22211 17.9514 9.08756 18.3333 9.08756H22.3698C22.7517 9.08756 23.0773 9.22211 23.3464 9.49121C23.6154 9.76031 23.75 10.0858 23.75 10.4678V14.5303C23.75 14.9122 23.6154 15.2377 23.3464 15.5068C23.0773 15.7759 22.7517 15.9105 22.3698 15.9105H18.3333ZM18.3333 8.0459C17.9514 8.0459 17.6259 7.91135 17.3568 7.64225C17.0877 7.37316 16.9531 7.04763 16.9531 6.66569V2.62923C16.9531 2.24729 17.0877 1.92177 17.3568 1.65267C17.6259 1.38357 17.9514 1.24902 18.3333 1.24902H22.3698C22.7517 1.24902 23.0773 1.38357 23.3464 1.65267C23.6154 1.92177 23.75 2.24729 23.75 2.62923V6.66569C23.75 7.04763 23.6154 7.37316 23.3464 7.64225C23.0773 7.91135 22.7517 8.0459 22.3698 8.0459H18.3333Z" fill="#343A40" fill-opacity="0.5"/>
</g>
</g>
<defs>
<clipPath id="clip0_11219_2547">
<rect width="25" height="25" fill="white"/>
</clipPath>
</defs>
</svg>
