<svg width="25" height="25" viewBox="0 0 25 25" fill="none" xmlns="http://www.w3.org/2000/svg">
<g clip-path="url(#clip0_11219_2595)">
<mask id="mask0_11219_2595" style="mask-type:alpha" maskUnits="userSpaceOnUse" x="0" y="0" width="25" height="25">
<rect width="25" height="25" fill="#D9D9D9"/>
</mask>
<g mask="url(#mask0_11219_2595)">
<path d="M6.14567 23.75C5.38647 23.75 4.73664 23.4797 4.19619 22.9391C3.65557 22.3984 3.38525 21.7486 3.38525 20.9896V4.01042C3.38525 3.25139 3.65557 2.60156 4.19619 2.06094C4.73664 1.52031 5.38647 1.25 6.14567 1.25H13.1248C13.4969 1.25 13.8515 1.32023 14.1886 1.46068C14.5258 1.60096 14.8222 1.79983 15.078 2.05729L20.8071 7.76042C21.0646 8.01615 21.2635 8.31259 21.4037 8.64974C21.5442 8.98689 21.6144 9.34149 21.6144 9.71354V20.9896C21.6144 21.7486 21.3441 22.3984 20.8035 22.9391C20.2629 23.4797 19.613 23.75 18.854 23.75H6.14567ZM12.9165 8.56771C12.9165 8.94965 13.0511 9.27517 13.3201 9.54427C13.5892 9.81337 13.9148 9.94792 14.2967 9.94792H18.854L12.9165 4.01042V8.56771Z" fill="#343A40" fill-opacity="0.5"/>
</g>
</g>
<defs>
<clipPath id="clip0_11219_2595">
<rect width="25" height="25" fill="white"/>
</clipPath>
</defs>
</svg>
