<svg width="25" height="25" viewBox="0 0 25 25" fill="none" xmlns="http://www.w3.org/2000/svg">
<g clip-path="url(#clip0_11219_2573)">
<path d="M24.7852 1.25045L23.7495 0.214663C23.5336 -0.00135204 23.2063 -0.0605316 22.9286 0.0654447L17.3654 2.52135C17.1465 2.62096 16.9906 2.8213 16.9477 3.05743C16.9051 3.2942 16.9805 3.53638 17.1505 3.70636L21.2936 7.84946C21.4636 8.01943 21.7058 8.09477 21.9425 8.05224C22.1787 8.00933 22.379 7.85351 22.4786 7.63452L24.9345 2.07125C25.0604 1.79357 25.0013 1.46637 24.7852 1.25045Z" fill="#343A40" fill-opacity="0.5"/>
<path d="M4.73145 16.125L0.642589 20.2139C-0.214196 21.0706 -0.214196 22.4644 0.642589 23.3212L1.67833 24.3569C2.53512 25.2137 3.92891 25.2137 4.78565 24.3569L8.87451 20.2681L4.73145 16.125ZM4.27496 21.7706C3.98868 22.0569 3.52535 22.0569 3.23912 21.7706C2.95294 21.4843 2.95294 21.021 3.23912 20.7349L5.25645 18.7175C5.54273 18.4312 6.00601 18.4312 6.29219 18.7175C6.57847 19.0038 6.57847 19.467 6.29219 19.7533L4.27496 21.7706Z" fill="#343A40" fill-opacity="0.5"/>
<path d="M11.9818 17.1612L7.83868 13.0181C7.26763 12.4471 6.33814 12.4471 5.76715 13.0181C5.19611 13.5892 5.19611 14.5187 5.76715 15.0897L9.91026 19.2328C10.4812 19.8038 11.4107 19.8038 11.9818 19.2328C12.5528 18.6619 12.5528 17.7323 11.9818 17.1612Z" fill="#343A40" fill-opacity="0.5"/>
<path d="M19.2222 7.84892L17.1506 5.77734L11.464 11.464C10.8919 10.8919 9.96455 10.8919 9.39243 11.464L8.87451 11.9819L13.0176 16.125L13.5355 15.6071C14.1076 15.0349 14.1076 14.1076 13.5355 13.5355L19.2222 7.84892Z" fill="#343A40" fill-opacity="0.5"/>
<path d="M23.7149 17.4975C22.5259 16.3085 21.0961 16.0529 19.4556 16.346L16.1258 13.0166L15.3307 13.8118C15.5925 14.7956 15.3379 15.8758 14.571 16.6427L14.0542 17.1596L16.3457 19.4509C16.1147 20.7439 16.1364 21.8405 16.9394 23.03C17.8661 24.4031 19.4879 25.1835 21.187 24.9496C21.4679 24.911 21.7025 24.7162 21.7928 24.4474C21.8831 24.1787 21.8135 23.882 21.613 23.6814L20.6057 22.6759V20.6046H22.6792L23.6809 21.6063C23.8818 21.8072 24.1793 21.8763 24.4483 21.7853C24.7173 21.6943 24.9115 21.4586 24.9493 21.1771C25.1282 19.8449 24.6923 18.4745 23.7149 17.4975Z" fill="#343A40" fill-opacity="0.5"/>
<path d="M8.64437 5.53236C8.93504 3.90898 8.69969 2.48085 7.49286 1.27314C6.67172 0.45205 5.57308 0 4.39936 0C4.20175 0 4.00624 0.0128906 3.81327 0.0384277C3.53149 0.0758299 3.2956 0.270263 3.20448 0.53955C3.11337 0.808739 3.18295 1.10639 3.38393 1.30737L4.39545 2.30883V4.39447H2.31376L1.30976 3.37641C1.10922 3.17587 0.812204 3.10649 0.543357 3.19697C0.274607 3.28745 0.0802229 3.52231 0.0415999 3.80331C-0.181544 5.42816 0.522507 7.07889 1.95898 8.04862C3.15292 8.85301 4.25614 8.87293 5.53944 8.64159L7.84027 10.9462L8.35731 10.4291C9.1242 9.66224 10.2043 9.40779 11.1882 9.66951L11.983 8.87469L8.64437 5.53236Z" fill="#343A40" fill-opacity="0.5"/>
</g>
<defs>
<clipPath id="clip0_11219_2573">
<rect width="25" height="25" fill="white"/>
</clipPath>
</defs>
</svg>
