<svg width="25" height="25" viewBox="0 0 25 25" fill="none" xmlns="http://www.w3.org/2000/svg">
<g clip-path="url(#clip0_11219_2541)">
<mask id="mask0_11219_2541" style="mask-type:alpha" maskUnits="userSpaceOnUse" x="0" y="0" width="25" height="25">
<rect width="25" height="25" fill="#D9D9D9"/>
</mask>
<g mask="url(#mask0_11219_2541)">
<path d="M12.5 15.3903L14.1667 16.6403C14.4444 16.8486 14.7179 16.8573 14.987 16.6663C15.2561 16.4754 15.3385 16.215 15.2344 15.8851L14.5833 13.8018L16.4062 12.3695C16.6667 12.1611 16.7405 11.9051 16.6276 11.6012C16.5148 11.2974 16.2934 11.1455 15.9635 11.1455H13.8542L13.151 9.01009C13.0469 8.69759 12.8299 8.54134 12.5 8.54134C12.1701 8.54134 11.9531 8.69759 11.849 9.01009L11.1458 11.1455H9.01042C8.68056 11.1455 8.4592 11.2974 8.34635 11.6012C8.23351 11.9051 8.30729 12.1611 8.56771 12.3695L10.3646 13.8018L9.71354 15.9111C9.60938 16.2236 9.69184 16.4754 9.96094 16.6663C10.23 16.8573 10.5035 16.8573 10.7812 16.6663L12.5 15.3903ZM4.01042 21.6143C3.22917 21.6143 2.57378 21.3495 2.04427 20.82C1.51476 20.2905 1.25 19.6351 1.25 18.8538V14.7132C1.25 14.5222 1.31076 14.3617 1.43229 14.2314C1.55382 14.1012 1.71007 14.0275 1.90104 14.0101C2.31771 13.9233 2.66927 13.7627 2.95573 13.5283C3.24219 13.2939 3.38542 12.9511 3.38542 12.4997C3.38542 12.0483 3.24219 11.6967 2.95573 11.445C2.66927 11.1933 2.31771 11.024 1.90104 10.9372C1.71007 10.9198 1.55382 10.846 1.43229 10.7158C1.31076 10.5856 1.25 10.425 1.25 10.2341V6.09343C1.25 5.31217 1.51476 4.65679 2.04427 4.12728C2.57378 3.59776 3.22917 3.33301 4.01042 3.33301H21.0417C21.8229 3.33301 22.4783 3.59776 23.0078 4.12728C23.5373 4.65679 23.8021 5.31217 23.8021 6.09343V10.2341C23.8021 10.425 23.7413 10.5856 23.6198 10.7158C23.4983 10.846 23.342 10.9198 23.151 10.9372C22.7344 11.024 22.3828 11.1933 22.0964 11.445C21.8099 11.6967 21.6667 12.0483 21.6667 12.4997C21.6667 12.9511 21.8099 13.2939 22.0964 13.5283C22.3828 13.7627 22.7344 13.9233 23.151 14.0101C23.342 14.0275 23.4983 14.1012 23.6198 14.2314C23.7413 14.3617 23.8021 14.5222 23.8021 14.7132V18.8538C23.8021 19.6351 23.5373 20.2905 23.0078 20.82C22.4783 21.3495 21.8229 21.6143 21.0417 21.6143H4.01042Z" fill="#343A40" fill-opacity="0.5"/>
</g>
</g>
<defs>
<clipPath id="clip0_11219_2541">
<rect width="25" height="25" fill="white"/>
</clipPath>
</defs>
</svg>
